<svg width="24" height="24" viewBox="0 0 24 24" fill="none" xmlns="http://www.w3.org/2000/svg">
<path d="M11.9889 23.4531C18.2643 23.4531 23.444 18.2735 23.444 12.0091C23.444 5.74481 18.2533 0.565125 11.9779 0.565125C5.71354 0.565125 0.544922 5.74481 0.544922 12.0091C0.544922 18.2735 5.72461 23.4531 11.9889 23.4531ZM11.9889 21.1732C6.90885 21.1732 2.84701 17.0892 2.84701 12.0091C2.84701 6.92906 6.90885 2.85614 11.9779 2.85614C17.0579 2.85614 21.1419 6.92906 21.153 12.0091C21.1641 17.0892 17.069 21.1732 11.9889 21.1732ZM12 16.3477C14.4017 16.3477 16.3385 14.4108 16.3385 11.9981C16.3385 9.60744 14.4017 7.65953 12 7.65953C9.58724 7.65953 7.65039 9.60744 7.65039 11.9981C7.65039 14.4108 9.58724 16.3477 12 16.3477Z" fill="#C74E5B" style="fill:#C74E5B;fill:color(display-p3 0.7804 0.3059 0.3569);fill-opacity:1;"/>
</svg>
